<svg xmlns="http://www.w3.org/2000/svg" viewBox="0 0 71 43"><path fill="#fff" d="M32.23 32.64l18.14-5.9 2.53-18.04-18.13 5.9-2.54 18.04zm5.89-15.82l10.45-3.39-.65 3.78-10.46 3.4.66-3.79zm-1.02 7.26l10.46-3.4-.67 3.86-10.46 3.4.67-3.86zm-11.01-3.33l1.55-.52-2.05 14.57 3.85-1.25 2.53-18.04-6.7 2.2.82 3.04zm-7.65-.84l-7.03 14.91-3.2-11.59-6.59 2.14.84 3.08-2.04 14.53 3.85-1.25 1.76-12.55 3.07 10.98 3.58-1.16 6.44-14.21-1.81 12.71 3.84-1.25 2.53-18.04-5.24 1.7zm52.56-17.02l-6.24 2-1.13-4.73-2.72 5.96-6.24 2 4.56 1.69-2.72 5.96 5.53-4.92 4.56 1.68-1.14-4.73 5.54-4.91z"/></svg>